<?xml version="1.0" encoding="UTF-8" standalone="no"?>
<svg version="1.1" id="Layer_1" xmlns="http://www.w3.org/2000/svg" xmlns:xlink="http://www.w3.org/1999/xlink" x="0px" y="0px" viewBox="0 0 128 128" style="enable-background:new 0 0 128 128;" xml:space="preserve">

<g>
	<g>
		<g>
			<g>
				<polyline points="47.6,74.8 85.4,12.4 75.4,62.4 95.4,62.4 56.5,115.6 66.6,74.8 				" style="fill:#FFDD77;"></polyline>
			</g>
		</g>
	</g>
	<g>
		<polyline points="32.6,74.8 70.4,12.4 60.4,62.4 80.4,62.4 41.5,115.6 51.6,74.8 		" style="fill:#FFFFFF;"></polyline>
	</g>
	<g>
		<g>
			<g>
				<path d="M41.5,118.6c-0.4,0-0.9-0.1-1.3-0.3c-1.3-0.6-2-2.1-1.6-3.4l10-40c0.4-1.6,2-2.6,3.6-2.2
					c1.6,0.4,2.6,2,2.2,3.6l-6.3,25.1l26.3-36.1H60.4c-0.9,0-1.8-0.4-2.3-1.1c-0.6-0.7-0.8-1.6-0.6-2.5l10-50
					c0.3-1.6,1.9-2.7,3.5-2.4c1.6,0.3,2.7,1.9,2.4,3.5L64,59.4h16.3c1.1,0,2.2,0.6,2.7,1.6s0.4,2.2-0.3,3.1l-38.9,53.2
					C43.4,118.2,42.5,118.6,41.5,118.6z" style="fill:#3F4A54;"></path>
			</g>
		</g>
		<g>
			<g>
				<path d="M32.6,77.8c-0.5,0-1.1-0.1-1.6-0.4c-1.4-0.9-1.9-2.7-1-4.1l37.8-62.4c0.9-1.4,2.7-1.9,4.1-1
					c1.4,0.9,1.9,2.7,1,4.1L35.2,76.3C34.6,77.2,33.6,77.8,32.6,77.8z" style="fill:#3F4A54;"></path>
			</g>
		</g>
	</g>
</g>
</svg>