<svg version="1.1" id="Слой_1" xmlns="http://www.w3.org/2000/svg" xmlns:xlink="http://www.w3.org/1999/xlink" x="0px" y="0px" viewBox="0 0 128 128" enable-background="new 0 0 128 128" xml:space="preserve">
<g>
	<polygon fill="#FFFFFF" points="53.1,88.5 64.3,73.5 80.6,95.5 85.6,95.5 107.3,124 79.3,124 	"></polygon>
	<polygon fill="#C7D7E2" points="78,92.5 84.3,84 114.3,124 107.3,124 85.6,96 80.6,96 	"></polygon>
	<polygon fill="#FFFFFF" points="114.4,50 74.3,50 74.3,24 114.4,24 104.5,37 	"></polygon>
	<polygon fill="#F2A5BF" points="77.3,50 89.4,50 114.4,50 104.5,37 114.4,24 77.3,24 	"></polygon>
	<rect x="64.3" y="14" fill="#FFFFFF" width="30.1" height="26"></rect>
	<path fill="#C7D7E2" d="M56,84.6l-2.9,3.9L79.3,124h0h6.2l-13.2-17.6c-4.7-6.3-7.5-13.9-8-21.8v0H56z"></path>
	<polyline fill="#FFFFFF" points="19.3,124 49.3,84 79.3,124 	"></polyline>
	<polyline fill="#C7D7E2" points="79.3,124 49.3,84 41.8,94 48.8,94 48.8,99 55.8,99 59.3,124 	"></polyline>
	<path fill="#454B54" d="M79.3,127c-0.9,0-1.8-0.4-2.4-1.2L49.3,89l-27.6,36.8c-1,1.3-2.9,1.6-4.2,0.6c-1.3-1-1.6-2.9-0.6-4.2l30-40
		c0.6-0.8,1.5-1.2,2.4-1.2s1.8,0.4,2.4,1.2l30,40c1,1.3,0.7,3.2-0.6,4.2C80.6,126.8,80,127,79.3,127z"></path>
	<path fill="#454B54" d="M80.6,99c-0.9,0-1.8-0.4-2.4-1.2L64.3,79l-1.3,1.7c-1,1.3-2.9,1.5-4.2,0.5c-1.3-1-1.5-2.9-0.5-4.2l3.8-4.8
		c0.6-0.7,1.5-1.2,2.4-1.1c0.9,0,1.8,0.5,2.4,1.2l16.2,22c1,1.3,0.7,3.2-0.6,4.2C81.8,98.8,81.2,99,80.6,99z"></path>
	<path fill="#454B54" d="M114.3,127c-0.9,0-1.8-0.4-2.4-1.2l-30-40c-1-1.3-0.7-3.2,0.6-4.2c1.3-1,3.2-0.7,4.2,0.6l30,40
		c1,1.3,0.7,3.2-0.6,4.2C115.6,126.8,115,127,114.3,127z"></path>
	<path fill="none" stroke="#454B54" stroke-width="2" stroke-linecap="round" stroke-linejoin="round" stroke-miterlimit="10" d="
		M74.5,50"></path>
	<path fill="#454B54" d="M64.3,77c-1.7,0-3-1.3-3-3V14c0-1.7,1.3-3,3-3h30.1c1.7,0,3,1.3,3,3v26c0,1.7-1.3,3-3,3s-3-1.3-3-3V17H67.3
		v57C67.3,75.7,66,77,64.3,77z"></path>
	<path fill="#454B54" d="M94.4,43H74.3c-1.7,0-3-1.3-3-3s1.3-3,3-3h20.1c1.7,0,3,1.3,3,3S96.1,43,94.4,43z"></path>
	<path fill="#454B54" d="M114.5,53h-35c-1.7,0-3-1.3-3-3s1.3-3,3-3h28.9l-6.3-8.2c-0.8-1.1-0.8-2.6,0-3.7l6.3-8.2h-3.9
		c-1.7,0-3-1.3-3-3s1.3-3,3-3h10c1.1,0,2.2,0.6,2.7,1.7s0.4,2.2-0.3,3.2L108.2,37l8.6,11.2c0.7,0.9,0.8,2.1,0.3,3.2
		S115.6,53,114.5,53z"></path>
</g>
</svg>