<svg xmlns="http://www.w3.org/2000/svg" xmlns:xlink="http://www.w3.org/1999/xlink" viewBox="0 0 64 64" version="1.1">
<g id="surface1">
<path style=" fill:#85CBF8;" d="M 13 13 L 51 13 L 51 61 L 13 61 Z "></path>
<path style=" fill:#7BBEEB;" d="M 36 13 L 51 13 L 51 61 L 36 61 Z "></path>
<path style=" fill:#9FDDFF;" d="M 13 13 L 24 13 L 24 61 L 13 61 Z "></path>
<path style=" fill:#F9DD8F;" d="M 13 9 L 51 9 C 52.105469 9 53 9.894531 53 11 C 53 12.105469 52.105469 13 51 13 L 13 13 C 11.894531 13 11 12.105469 11 11 C 11 9.894531 11.894531 9 13 9 Z "></path>
<path style=" fill:#ED7899;" d="M 13 55 L 51 55 L 51 61 L 13 61 Z "></path>
<path style=" fill:#FAEFDE;" d="M 29 53 L 35 53 L 35 61 L 29 61 Z "></path>
<path style=" fill:#8D6C9F;" d="M 55 60 L 52 60 L 52 13.820313 C 53.363281 13.324219 54.179688 11.921875 53.933594 10.492188 C 53.6875 9.0625 52.453125 8.011719 51 8 L 34 8 L 34 4.058594 C 34 3.507813 33.550781 3.058594 33 3.058594 C 32.449219 3.058594 32 3.507813 32 4.058594 L 32 8 L 30 8 L 30 1.058594 C 30 0.507813 29.550781 0.0585938 29 0.0585938 C 28.449219 0.0585938 28 0.507813 28 1.058594 L 28 8 L 13 8 C 11.546875 8.011719 10.3125 9.0625 10.066406 10.492188 C 9.820313 11.921875 10.636719 13.324219 12 13.820313 L 12 60 L 9 60 C 8.449219 60 8 60.449219 8 61 C 8 61.550781 8.449219 62 9 62 L 55 62 C 55.550781 62 56 61.550781 56 61 C 56 60.449219 55.550781 60 55 60 Z M 34 60 L 30 60 L 30 54 L 34 54 Z M 34 52 L 30 52 C 28.894531 52 28 52.894531 28 54 L 14 54 L 14 18 L 40 18 C 40.550781 18 41 17.550781 41 17 C 41 16.449219 40.550781 16 40 16 L 14 16 L 14 14 L 50 14 L 50 54 L 36 54 C 36 52.894531 35.105469 52 34 52 Z M 13 10 L 51 10 C 51.550781 10 52 10.449219 52 11 C 52 11.550781 51.550781 12 51 12 L 13 12 C 12.449219 12 12 11.550781 12 11 C 12 10.449219 12.449219 10 13 10 Z M 14 56 L 28 56 L 28 60 L 14 60 Z M 36 60 L 36 56 L 50 56 L 50 60 Z "></path>
<path style=" fill:#8D6C9F;" d="M 43 18 L 47 18 C 47.550781 18 48 17.550781 48 17 C 48 16.449219 47.550781 16 47 16 L 43 16 C 42.449219 16 42 16.449219 42 17 C 42 17.550781 42.449219 18 43 18 Z "></path>
<path style=" fill:#8D6C9F;" d="M 21 28 L 19 28 C 18.449219 28 18 28.449219 18 29 C 18 29.550781 18.449219 30 19 30 L 21 30 C 21.550781 30 22 29.550781 22 29 C 22 28.449219 21.550781 28 21 28 Z "></path>
<path style=" fill:#8D6C9F;" d="M 21 20 L 19 20 C 18.449219 20 18 20.449219 18 21 C 18 21.550781 18.449219 22 19 22 L 21 22 C 21.550781 22 22 21.550781 22 21 C 22 20.449219 21.550781 20 21 20 Z "></path>
<path style=" fill:#8D6C9F;" d="M 21 24 L 19 24 C 18.449219 24 18 24.449219 18 25 C 18 25.550781 18.449219 26 19 26 L 21 26 C 21.550781 26 22 25.550781 22 25 C 22 24.449219 21.550781 24 21 24 Z "></path>
<path style=" fill:#8D6C9F;" d="M 29 28 L 27 28 C 26.449219 28 26 28.449219 26 29 C 26 29.550781 26.449219 30 27 30 L 29 30 C 29.550781 30 30 29.550781 30 29 C 30 28.449219 29.550781 28 29 28 Z "></path>
<path style=" fill:#8D6C9F;" d="M 29 20 L 27 20 C 26.449219 20 26 20.449219 26 21 C 26 21.550781 26.449219 22 27 22 L 29 22 C 29.550781 22 30 21.550781 30 21 C 30 20.449219 29.550781 20 29 20 Z "></path>
<path style=" fill:#8D6C9F;" d="M 29 24 L 27 24 C 26.449219 24 26 24.449219 26 25 C 26 25.550781 26.449219 26 27 26 L 29 26 C 29.550781 26 30 25.550781 30 25 C 30 24.449219 29.550781 24 29 24 Z "></path>
<path style=" fill:#8D6C9F;" d="M 35 30 L 37 30 C 37.550781 30 38 29.550781 38 29 C 38 28.449219 37.550781 28 37 28 L 35 28 C 34.449219 28 34 28.449219 34 29 C 34 29.550781 34.449219 30 35 30 Z "></path>
<path style=" fill:#8D6C9F;" d="M 35 22 L 37 22 C 37.550781 22 38 21.550781 38 21 C 38 20.449219 37.550781 20 37 20 L 35 20 C 34.449219 20 34 20.449219 34 21 C 34 21.550781 34.449219 22 35 22 Z "></path>
<path style=" fill:#8D6C9F;" d="M 35 26 L 37 26 C 37.550781 26 38 25.550781 38 25 C 38 24.449219 37.550781 24 37 24 L 35 24 C 34.449219 24 34 24.449219 34 25 C 34 25.550781 34.449219 26 35 26 Z "></path>
<path style=" fill:#8D6C9F;" d="M 43 30 L 45 30 C 45.550781 30 46 29.550781 46 29 C 46 28.449219 45.550781 28 45 28 L 43 28 C 42.449219 28 42 28.449219 42 29 C 42 29.550781 42.449219 30 43 30 Z "></path>
<path style=" fill:#8D6C9F;" d="M 43 22 L 45 22 C 45.550781 22 46 21.550781 46 21 C 46 20.449219 45.550781 20 45 20 L 43 20 C 42.449219 20 42 20.449219 42 21 C 42 21.550781 42.449219 22 43 22 Z "></path>
<path style=" fill:#8D6C9F;" d="M 43 26 L 45 26 C 45.550781 26 46 25.550781 46 25 C 46 24.449219 45.550781 24 45 24 L 43 24 C 42.449219 24 42 24.449219 42 25 C 42 25.550781 42.449219 26 43 26 Z "></path>
<path style=" fill:#8D6C9F;" d="M 21 40 L 19 40 C 18.449219 40 18 40.449219 18 41 C 18 41.550781 18.449219 42 19 42 L 21 42 C 21.550781 42 22 41.550781 22 41 C 22 40.449219 21.550781 40 21 40 Z "></path>
<path style=" fill:#8D6C9F;" d="M 21 32 L 19 32 C 18.449219 32 18 32.449219 18 33 C 18 33.550781 18.449219 34 19 34 L 21 34 C 21.550781 34 22 33.550781 22 33 C 22 32.449219 21.550781 32 21 32 Z "></path>
<path style=" fill:#8D6C9F;" d="M 21 36 L 19 36 C 18.449219 36 18 36.449219 18 37 C 18 37.550781 18.449219 38 19 38 L 21 38 C 21.550781 38 22 37.550781 22 37 C 22 36.449219 21.550781 36 21 36 Z "></path>
<path style=" fill:#8D6C9F;" d="M 29 40 L 27 40 C 26.449219 40 26 40.449219 26 41 C 26 41.550781 26.449219 42 27 42 L 29 42 C 29.550781 42 30 41.550781 30 41 C 30 40.449219 29.550781 40 29 40 Z "></path>
<path style=" fill:#8D6C9F;" d="M 29 32 L 27 32 C 26.449219 32 26 32.449219 26 33 C 26 33.550781 26.449219 34 27 34 L 29 34 C 29.550781 34 30 33.550781 30 33 C 30 32.449219 29.550781 32 29 32 Z "></path>
<path style=" fill:#8D6C9F;" d="M 29 36 L 27 36 C 26.449219 36 26 36.449219 26 37 C 26 37.550781 26.449219 38 27 38 L 29 38 C 29.550781 38 30 37.550781 30 37 C 30 36.449219 29.550781 36 29 36 Z "></path>
<path style=" fill:#8D6C9F;" d="M 35 42 L 37 42 C 37.550781 42 38 41.550781 38 41 C 38 40.449219 37.550781 40 37 40 L 35 40 C 34.449219 40 34 40.449219 34 41 C 34 41.550781 34.449219 42 35 42 Z "></path>
<path style=" fill:#8D6C9F;" d="M 35 34 L 37 34 C 37.550781 34 38 33.550781 38 33 C 38 32.449219 37.550781 32 37 32 L 35 32 C 34.449219 32 34 32.449219 34 33 C 34 33.550781 34.449219 34 35 34 Z "></path>
<path style=" fill:#8D6C9F;" d="M 35 38 L 37 38 C 37.550781 38 38 37.550781 38 37 C 38 36.449219 37.550781 36 37 36 L 35 36 C 34.449219 36 34 36.449219 34 37 C 34 37.550781 34.449219 38 35 38 Z "></path>
<path style=" fill:#8D6C9F;" d="M 43 42 L 45 42 C 45.550781 42 46 41.550781 46 41 C 46 40.449219 45.550781 40 45 40 L 43 40 C 42.449219 40 42 40.449219 42 41 C 42 41.550781 42.449219 42 43 42 Z "></path>
<path style=" fill:#8D6C9F;" d="M 43 34 L 45 34 C 45.550781 34 46 33.550781 46 33 C 46 32.449219 45.550781 32 45 32 L 43 32 C 42.449219 32 42 32.449219 42 33 C 42 33.550781 42.449219 34 43 34 Z "></path>
<path style=" fill:#8D6C9F;" d="M 43 38 L 45 38 C 45.550781 38 46 37.550781 46 37 C 46 36.449219 45.550781 36 45 36 L 43 36 C 42.449219 36 42 36.449219 42 37 C 42 37.550781 42.449219 38 43 38 Z "></path>
<path style=" fill:#8D6C9F;" d="M 21 44 L 19 44 C 18.449219 44 18 44.449219 18 45 C 18 45.550781 18.449219 46 19 46 L 21 46 C 21.550781 46 22 45.550781 22 45 C 22 44.449219 21.550781 44 21 44 Z "></path>
<path style=" fill:#8D6C9F;" d="M 21 48 L 19 48 C 18.449219 48 18 48.449219 18 49 C 18 49.550781 18.449219 50 19 50 L 21 50 C 21.550781 50 22 49.550781 22 49 C 22 48.449219 21.550781 48 21 48 Z "></path>
<path style=" fill:#8D6C9F;" d="M 29 44 L 27 44 C 26.449219 44 26 44.449219 26 45 C 26 45.550781 26.449219 46 27 46 L 29 46 C 29.550781 46 30 45.550781 30 45 C 30 44.449219 29.550781 44 29 44 Z "></path>
<path style=" fill:#8D6C9F;" d="M 29 48 L 27 48 C 26.449219 48 26 48.449219 26 49 C 26 49.550781 26.449219 50 27 50 L 29 50 C 29.550781 50 30 49.550781 30 49 C 30 48.449219 29.550781 48 29 48 Z "></path>
<path style=" fill:#8D6C9F;" d="M 35 46 L 37 46 C 37.550781 46 38 45.550781 38 45 C 38 44.449219 37.550781 44 37 44 L 35 44 C 34.449219 44 34 44.449219 34 45 C 34 45.550781 34.449219 46 35 46 Z "></path>
<path style=" fill:#8D6C9F;" d="M 38 49 C 38 48.449219 37.550781 48 37 48 L 35 48 C 34.449219 48 34 48.449219 34 49 C 34 49.550781 34.449219 50 35 50 L 37 50 C 37.550781 50 38 49.550781 38 49 Z "></path>
<path style=" fill:#8D6C9F;" d="M 43 46 L 45 46 C 45.550781 46 46 45.550781 46 45 C 46 44.449219 45.550781 44 45 44 L 43 44 C 42.449219 44 42 44.449219 42 45 C 42 45.550781 42.449219 46 43 46 Z "></path>
<path style=" fill:#8D6C9F;" d="M 43 50 L 45 50 C 45.550781 50 46 49.550781 46 49 C 46 48.449219 45.550781 48 45 48 L 43 48 C 42.449219 48 42 48.449219 42 49 C 42 49.550781 42.449219 50 43 50 Z "></path>
</g>
</svg>