<svg xmlns="http://www.w3.org/2000/svg" xmlns:xlink="http://www.w3.org/1999/xlink" viewBox="0 0 64 64" version="1.1">
<g id="surface1">
<path style=" fill:#F9E3AE;" d="M 32.261719 2.351563 L 36.839844 6.058594 C 37.28125 6.414063 37.851563 6.570313 38.410156 6.480469 L 44.230469 5.558594 C 45.164063 5.414063 46.070313 5.9375 46.410156 6.820313 L 48.519531 12.320313 C 48.722656 12.847656 49.140625 13.265625 49.671875 13.46875 L 55.171875 15.578125 C 56.050781 15.917969 56.578125 16.828125 56.429688 17.761719 L 55.511719 23.578125 C 55.421875 24.140625 55.574219 24.710938 55.929688 25.148438 L 59.640625 29.730469 C 60.234375 30.464844 60.234375 31.515625 59.640625 32.25 L 55.929688 36.828125 C 55.574219 37.269531 55.421875 37.839844 55.511719 38.398438 L 56.429688 44.21875 C 56.578125 45.152344 56.050781 46.0625 55.171875 46.398438 L 49.671875 48.511719 C 49.140625 48.714844 48.722656 49.132813 48.519531 49.660156 L 46.410156 55.160156 C 46.070313 56.042969 45.164063 56.566406 44.230469 56.421875 L 38.410156 55.5 C 37.851563 55.410156 37.28125 55.5625 36.839844 55.921875 L 32.261719 59.628906 C 31.527344 60.226563 30.472656 60.226563 29.738281 59.628906 L 25.160156 55.921875 C 24.71875 55.5625 24.148438 55.410156 23.589844 55.5 L 17.769531 56.421875 C 16.835938 56.566406 15.929688 56.042969 15.589844 55.160156 L 13.480469 49.660156 C 13.277344 49.132813 12.859375 48.714844 12.328125 48.511719 L 6.828125 46.398438 C 5.949219 46.0625 5.421875 45.152344 5.570313 44.21875 L 6.488281 38.398438 C 6.578125 37.839844 6.425781 37.269531 6.070313 36.828125 L 2.351563 32.261719 C 1.753906 31.527344 1.753906 30.472656 2.351563 29.738281 L 6.058594 25.160156 C 6.414063 24.71875 6.570313 24.148438 6.480469 23.589844 L 5.558594 17.769531 C 5.414063 16.835938 5.9375 15.929688 6.820313 15.589844 L 12.320313 13.480469 C 12.847656 13.277344 13.265625 12.859375 13.46875 12.328125 L 15.578125 6.828125 C 15.917969 5.949219 16.828125 5.421875 17.761719 5.570313 L 23.578125 6.488281 C 24.140625 6.578125 24.710938 6.425781 25.148438 6.070313 L 29.730469 2.359375 C 30.464844 1.757813 31.519531 1.75 32.261719 2.351563 Z "></path>
<path style=" fill:#F6D397;" d="M 50 31 C 50 41.492188 41.492188 50 31 50 C 20.507813 50 12 41.492188 12 31 C 12 20.507813 20.507813 12 31 12 C 41.492188 12 50 20.507813 50 31 Z "></path>
<path style=" fill:#6E91CE;" d="M 18.929688 28.929688 L 18.929688 45 C 18.929688 47.210938 17.140625 49 14.929688 49 L 13.558594 49 L 12 48.390625 L 5.5 45.828125 L 6.058594 36.828125 L 1.910156 30.578125 L 7 25 L 7 24.929688 L 14.890625 24.929688 C 15.957031 24.917969 16.984375 25.335938 17.746094 26.085938 C 18.503906 26.839844 18.929688 27.863281 18.929688 28.929688 Z "></path>
<path style=" fill:#FAEFDE;" d="M 43 27.679688 L 43 27.46875 C 43 26.074219 41.867188 24.941406 40.46875 24.941406 L 27.171875 24.941406 L 29.171875 16.988281 C 29.453125 15.855469 29.199219 14.652344 28.476563 13.730469 C 27.757813 12.808594 26.652344 12.269531 25.480469 12.269531 L 25.28125 12.269531 L 18.929688 26.199219 L 18.929688 34.371094 L 19.390625 47.371094 C 20.40625 47.589844 21.449219 47.671875 22.488281 47.621094 L 39 46.601563 C 40.269531 46.546875 41.257813 45.476563 41.203125 44.203125 C 41.152344 42.933594 40.082031 41.949219 38.808594 42 L 38.558594 42 L 39.691406 41.769531 C 40.859375 41.519531 41.691406 40.484375 41.691406 39.289063 L 41.691406 38.828125 C 41.691406 37.433594 40.558594 36.300781 39.160156 36.300781 L 40.671875 36.050781 C 41.996094 35.847656 42.980469 34.71875 43 33.378906 C 43 31.867188 41.773438 30.640625 40.261719 30.640625 L 39.199219 30.640625 L 40.710938 30.390625 C 42.035156 30.167969 43.003906 29.023438 43 27.679688 Z "></path>
<path style=" fill:#80A6DD;" d="M 10 25 L 10 48.390625 L 5.5 45.828125 L 6.058594 36.839844 L 1.910156 30.578125 L 6.980469 25 Z "></path>
<path style=" fill:#EFD8BE;" d="M 38.808594 42.03125 L 18.929688 42.03125 L 18.929688 47.359375 L 26.390625 47.429688 L 40.5 45.960938 L 40.839844 43.769531 Z "></path>
<path style=" fill:#8D6C9F;" d="M 60.421875 32.890625 C 61.3125 31.789063 61.3125 30.210938 60.421875 29.109375 L 56.710938 24.53125 C 56.53125 24.308594 56.453125 24.019531 56.5 23.738281 L 57.421875 17.921875 C 57.640625 16.519531 56.851563 15.15625 55.53125 14.648438 L 50 12.539063 C 49.734375 12.4375 49.523438 12.226563 49.421875 11.960938 L 47.308594 6.460938 C 46.804688 5.136719 45.441406 4.347656 44.039063 4.570313 L 38.21875 5.488281 C 37.9375 5.535156 37.652344 5.460938 37.429688 5.28125 L 32.890625 1.578125 C 31.789063 0.6875 30.210938 0.6875 29.109375 1.578125 L 24.53125 5.289063 C 24.308594 5.46875 24.019531 5.546875 23.738281 5.5 L 17.921875 4.578125 C 16.519531 4.359375 15.15625 5.148438 14.648438 6.46875 L 12.539063 12 C 12.4375 12.265625 12.226563 12.476563 11.960938 12.578125 L 6.460938 14.691406 C 5.136719 15.195313 4.347656 16.558594 4.570313 17.960938 L 5.488281 23.78125 C 5.535156 24.0625 5.460938 24.347656 5.28125 24.570313 L 1.578125 29.109375 C 0.6875 30.210938 0.6875 31.789063 1.578125 32.890625 L 5.289063 37.46875 C 5.46875 37.691406 5.546875 37.980469 5.5 38.261719 L 4.578125 44.078125 C 4.359375 45.480469 5.148438 46.84375 6.46875 47.351563 L 12 49.460938 C 12.265625 49.5625 12.476563 49.773438 12.578125 50.039063 L 14.691406 55.539063 C 15.195313 56.863281 16.558594 57.652344 17.960938 57.429688 L 23.78125 56.511719 C 24.0625 56.464844 24.347656 56.539063 24.570313 56.71875 L 29.148438 60.429688 C 30.25 61.324219 31.828125 61.324219 32.929688 60.429688 L 37.511719 56.71875 C 37.730469 56.539063 38.019531 56.464844 38.300781 56.511719 L 44.121094 57.429688 C 45.519531 57.652344 46.882813 56.863281 47.390625 55.539063 L 49.460938 50 C 49.5625 49.734375 49.773438 49.523438 50.039063 49.421875 L 55.539063 47.308594 C 56.863281 46.804688 57.652344 45.441406 57.429688 44.039063 L 56.511719 38.21875 C 56.464844 37.9375 56.539063 37.652344 56.71875 37.429688 Z M 13.558594 48 L 13.429688 48 C 13.203125 47.816406 12.949219 47.667969 12.679688 47.558594 L 7.179688 45.449219 C 6.738281 45.28125 6.476563 44.828125 6.550781 44.359375 L 7.46875 38.539063 C 7.605469 37.699219 7.375 36.839844 6.839844 36.179688 L 3.128906 31.628906 C 2.832031 31.261719 2.832031 30.738281 3.128906 30.371094 L 6.769531 25.878906 C 6.855469 25.910156 6.949219 25.925781 7.039063 25.929688 L 14.941406 25.929688 C 16.597656 25.929688 17.941406 27.273438 17.941406 28.929688 L 17.941406 45 C 17.941406 46.65625 16.597656 48 14.941406 48 Z M 55.160156 36.210938 C 54.625 36.871094 54.394531 37.730469 54.53125 38.570313 L 55.449219 44.390625 C 55.523438 44.855469 55.261719 45.3125 54.820313 45.480469 L 49.320313 47.589844 C 48.523438 47.894531 47.894531 48.523438 47.589844 49.320313 L 45.480469 54.820313 C 45.3125 55.261719 44.855469 55.523438 44.390625 55.449219 L 38.570313 54.53125 C 37.730469 54.394531 36.871094 54.625 36.210938 55.160156 L 31.628906 58.871094 C 31.261719 59.167969 30.738281 59.167969 30.371094 58.871094 L 25.789063 55.160156 C 25.128906 54.625 24.269531 54.394531 23.429688 54.53125 L 17.609375 55.449219 C 17.144531 55.523438 16.6875 55.261719 16.519531 54.820313 L 14.671875 50 L 14.929688 50 C 16.421875 49.988281 17.828125 49.316406 18.769531 48.160156 C 18.875 48.242188 19 48.304688 19.128906 48.339844 C 20.054688 48.546875 21 48.648438 21.949219 48.640625 L 22.550781 48.640625 L 39 47.601563 C 40.246094 47.519531 41.335938 46.742188 41.820313 45.589844 C 42.304688 44.441406 42.09375 43.117188 41.28125 42.171875 C 42.183594 41.503906 42.71875 40.453125 42.71875 39.328125 L 42.71875 38.871094 C 42.726563 38.085938 42.476563 37.324219 42 36.699219 C 43.105469 36.125 43.855469 35.039063 43.996094 33.800781 C 44.132813 32.5625 43.648438 31.335938 42.699219 30.53125 C 43.53125 29.816406 44.007813 28.773438 44 27.679688 L 44 27.46875 C 43.996094 26.539063 43.621094 25.648438 42.960938 24.996094 C 42.296875 24.347656 41.398438 23.988281 40.46875 24 L 28.46875 24 L 30.148438 17.230469 C 30.523438 15.789063 30.207031 14.261719 29.292969 13.085938 C 28.382813 11.910156 26.976563 11.226563 25.488281 11.230469 L 25.289063 11.230469 C 24.898438 11.230469 24.542969 11.460938 24.378906 11.820313 L 18.269531 25.238281 C 17.351563 24.421875 16.160156 23.980469 14.929688 24 L 7.5 24 C 7.515625 23.808594 7.515625 23.621094 7.5 23.429688 L 6.578125 17.609375 C 6.507813 17.144531 6.769531 16.6875 7.210938 16.519531 L 12.710938 14.410156 C 13.507813 14.105469 14.136719 13.476563 14.441406 12.679688 L 16.550781 7.179688 C 16.71875 6.738281 17.171875 6.476563 17.640625 6.550781 L 23.460938 7.46875 C 24.300781 7.605469 25.160156 7.375 25.820313 6.839844 L 30.398438 3.128906 C 30.765625 2.832031 31.292969 2.832031 31.660156 3.128906 L 36.238281 6.839844 C 36.902344 7.375 37.757813 7.605469 38.601563 7.46875 L 44.421875 6.550781 C 44.886719 6.476563 45.339844 6.738281 45.511719 7.179688 L 47.621094 12.679688 C 47.925781 13.476563 48.554688 14.105469 49.351563 14.410156 L 54.851563 16.519531 C 55.292969 16.6875 55.554688 17.144531 55.480469 17.609375 L 54.558594 23.429688 C 54.425781 24.269531 54.65625 25.128906 55.191406 25.789063 L 58.898438 30.371094 C 59.199219 30.738281 59.199219 31.261719 58.898438 31.628906 Z M 25.269531 25.929688 L 40.46875 25.929688 C 41.316406 25.933594 42 26.625 42 27.46875 L 42 27.679688 C 42 28.535156 41.382813 29.261719 40.539063 29.398438 L 39 29.648438 C 38.449219 29.695313 38.035156 30.175781 38.078125 30.730469 C 38.125 31.28125 38.609375 31.695313 39.160156 31.648438 L 40.21875 31.648438 C 41.136719 31.636719 41.90625 32.332031 41.980469 33.246094 C 42.058594 34.15625 41.414063 34.972656 40.511719 35.109375 L 39 35.351563 C 38.449219 35.394531 38.035156 35.878906 38.078125 36.429688 C 38.125 36.980469 38.609375 37.394531 39.160156 37.351563 C 40.003906 37.355469 40.683594 38.039063 40.691406 38.878906 L 40.691406 39.339844 C 40.6875 40.066406 40.171875 40.695313 39.460938 40.839844 L 38.328125 41.070313 C 37.777344 41.125 37.375 41.617188 37.429688 42.171875 C 37.484375 42.722656 37.976563 43.125 38.53125 43.070313 L 38.78125 43.070313 C 39.449219 43.105469 39.980469 43.648438 40.003906 44.316406 C 40.023438 44.988281 39.527344 45.5625 38.859375 45.640625 L 22.390625 46.640625 C 21.476563 46.683594 20.558594 46.613281 19.660156 46.429688 C 19.820313 45.96875 19.910156 45.488281 19.929688 45 L 19.929688 28.929688 C 19.929688 28.257813 19.792969 27.597656 19.53125 26.980469 C 19.660156 26.882813 19.769531 26.757813 19.839844 26.609375 L 25.898438 13.300781 C 26.679688 13.417969 27.371094 13.863281 27.808594 14.519531 C 28.242188 15.175781 28.382813 15.984375 28.191406 16.75 L 26.390625 23.941406 L 25.269531 23.941406 C 24.71875 23.941406 24.269531 24.386719 24.269531 24.941406 C 24.269531 25.492188 24.71875 25.941406 25.269531 25.941406 Z "></path>
<path style=" fill:#8D6C9F;" d="M 51 30 L 49 30 C 48.449219 30 48 30.449219 48 31 C 48 31.550781 48.449219 32 49 32 L 51 32 C 51.550781 32 52 31.550781 52 31 C 52 30.449219 51.550781 30 51 30 Z "></path>
<path style=" fill:#8D6C9F;" d="M 45.851563 16.148438 C 45.460938 15.761719 44.828125 15.761719 44.441406 16.148438 L 43 17.558594 C 42.601563 17.957031 42.601563 18.601563 43 19 C 43.398438 19.398438 44.042969 19.398438 44.441406 19 L 45.851563 17.589844 C 46.046875 17.402344 46.15625 17.140625 46.15625 16.871094 C 46.15625 16.597656 46.046875 16.339844 45.851563 16.148438 Z "></path>
<path style=" fill:#8D6C9F;" d="M 48.648438 27.308594 L 50.578125 26.789063 C 50.9375 26.707031 51.21875 26.4375 51.316406 26.085938 C 51.414063 25.734375 51.3125 25.355469 51.050781 25.101563 C 50.789063 24.84375 50.410156 24.753906 50.058594 24.859375 L 48.128906 25.378906 C 47.773438 25.464844 47.492188 25.734375 47.394531 26.085938 C 47.296875 26.4375 47.398438 26.816406 47.660156 27.070313 C 47.921875 27.324219 48.300781 27.417969 48.648438 27.308594 Z "></path>
<path style=" fill:#8D6C9F;" d="M 41.5 12.808594 C 41.269531 12.675781 40.996094 12.640625 40.738281 12.710938 C 40.480469 12.78125 40.261719 12.949219 40.128906 13.179688 L 39.128906 14.910156 C 38.882813 15.386719 39.050781 15.972656 39.515625 16.238281 C 39.980469 16.507813 40.574219 16.363281 40.859375 15.910156 L 41.859375 14.179688 C 41.996094 13.949219 42.03125 13.675781 41.964844 13.421875 C 41.898438 13.164063 41.730469 12.945313 41.5 12.808594 Z "></path>
<path style=" fill:#8D6C9F;" d="M 49.191406 20.5 C 49.058594 20.269531 48.839844 20.097656 48.582031 20.03125 C 48.324219 19.960938 48.050781 19.996094 47.820313 20.128906 L 46.089844 21.128906 C 45.636719 21.417969 45.492188 22.011719 45.761719 22.472656 C 46.027344 22.9375 46.613281 23.109375 47.089844 22.859375 L 48.820313 21.859375 C 49.296875 21.585938 49.460938 20.976563 49.191406 20.5 Z "></path>
<path style=" fill:#8D6C9F;" d="M 36.441406 10.71875 C 35.90625 10.582031 35.363281 10.898438 35.21875 11.429688 L 34.699219 13.359375 C 34.59375 13.710938 34.683594 14.089844 34.941406 14.351563 C 35.195313 14.613281 35.574219 14.714844 35.925781 14.617188 C 36.277344 14.519531 36.546875 14.234375 36.628906 13.878906 L 37.148438 11.949219 C 37.21875 11.691406 37.183594 11.417969 37.050781 11.1875 C 36.917969 10.957031 36.699219 10.789063 36.441406 10.71875 Z "></path>
</g>
</svg>