<svg xmlns="http://www.w3.org/2000/svg" xmlns:xlink="http://www.w3.org/1999/xlink" viewBox="0 0 48 48" version="1.1">
<g id="surface1">
<path style=" fill:#00695C;" d="M 36.75 26 L 33 26.769531 L 29.25 26 C 29.25 26 21 27.527344 21 36 L 45 36 C 45 27.558594 36.75 26 36.75 26 "></path>
<path style=" fill:#FF9800;" d="M 33 31 L 29 26 L 29 22 L 37 22 L 37 26 Z "></path>
<path style=" fill:#FFB74D;" d="M 40 15 C 40 9.121094 26 11.171875 26 15 L 26 18.070313 C 26 21.894531 29.132813 25 33 25 C 36.867188 25 40 21.894531 40 18.070313 Z "></path>
<path style=" fill:#F9A825;" d="M 28 26.335938 C 27.292969 26.550781 25.894531 27.21875 25 27.910156 L 25 35 L 28 35 Z "></path>
<path style=" fill:#F9A825;" d="M 41 27.925781 C 39.828125 27.078125 38.710938 26.574219 38 26.359375 L 38 35 L 41 35 Z "></path>
<path style=" fill:#F9A825;" d="M 25 33 L 41 33 L 41 36 L 25 36 Z "></path>
<path style=" fill:#FF5722;" d="M 39.996094 15 C 39.996094 14.976563 40 14.957031 40 14.933594 L 40 14 C 40 10.132813 36.867188 7 33 7 C 29.132813 7 26 10.132813 26 14 L 26 14.933594 C 26 14.957031 26.003906 14.976563 26.003906 15 Z "></path>
<path style=" fill:#FF5722;" d="M 24 15 L 42 15 L 42 17 L 24 17 Z "></path>
<path style=" fill:#D84315;" d="M 31 6 L 35 6 L 35 15 L 31 15 Z "></path>
<path style=" fill:#00897B;" d="M 18.75 32 L 15 32.769531 L 11.25 32 C 11.25 32 3 33.527344 3 42 L 27 42 C 27 33.558594 18.75 32 18.75 32 "></path>
<path style=" fill:#FF9800;" d="M 15 37 L 11 32 L 11 28 L 19 28 L 19 32 Z "></path>
<path style=" fill:#FFB74D;" d="M 22 21 C 22 15.121094 8 17.171875 8 21 L 8 24.070313 C 8 27.894531 11.132813 31 15 31 C 18.867188 31 22 27.894531 22 24.070313 Z "></path>
<path style=" fill:#F9A825;" d="M 10 32.335938 C 9.292969 32.550781 7.894531 33.21875 7 33.910156 L 7 41 L 10 41 Z "></path>
<path style=" fill:#F9A825;" d="M 23 33.925781 C 21.828125 33.078125 20.710938 32.574219 20 32.359375 L 20 41 L 23 41 Z "></path>
<path style=" fill:#F9A825;" d="M 7 39 L 23 39 L 23 42 L 7 42 Z "></path>
<path style=" fill:#263238;" d="M 28 33 L 25 33 L 25 31 L 28 31 Z "></path>
<path style=" fill:#263238;" d="M 41 33 L 38 33 L 38 31 L 41 31 Z "></path>
<path style=" fill:#263238;" d="M 10 39 L 7 39 L 7 37 L 10 37 Z "></path>
<path style=" fill:#263238;" d="M 23 39 L 20 39 L 20 37 L 23 37 Z "></path>
<path style=" fill:#FF5722;" d="M 21.996094 21 C 21.996094 20.976563 22 20.957031 22 20.933594 L 22 20 C 22 16.132813 18.867188 13 15 13 C 11.132813 13 8 16.132813 8 20 L 8 20.933594 C 8 20.957031 8.003906 20.976563 8.003906 21 Z "></path>
<path style=" fill:#D84315;" d="M 13 12 L 17 12 L 17 21 L 13 21 Z "></path>
<path style=" fill:#FF5722;" d="M 6 21 L 24 21 L 24 23 L 6 23 Z "></path>
<path style=" fill:#784719;" d="M 17 24 C 17 24.550781 17.449219 25 18 25 C 18.550781 25 19 24.550781 19 24 C 19 23.449219 18.550781 23 18 23 C 17.449219 23 17 23.449219 17 24 "></path>
<path style=" fill:#784719;" d="M 11 24 C 11 24.550781 11.449219 25 12 25 C 12.550781 25 13 24.550781 13 24 C 13 23.449219 12.550781 23 12 23 C 11.449219 23 11 23.449219 11 24 "></path>
<path style=" fill:#784719;" d="M 35 18 C 35 18.550781 35.449219 19 36 19 C 36.550781 19 37 18.550781 37 18 C 37 17.449219 36.550781 17 36 17 C 35.449219 17 35 17.449219 35 18 "></path>
<path style=" fill:#784719;" d="M 29 18 C 29 18.550781 29.449219 19 30 19 C 30.550781 19 31 18.550781 31 18 C 31 17.449219 30.550781 17 30 17 C 29.449219 17 29 17.449219 29 18 "></path>
</g>
</svg>