<svg id="Layer_1" data-name="Layer 1" xmlns="http://www.w3.org/2000/svg" xmlns:xlink="http://www.w3.org/1999/xlink" viewBox="0 0 289.58 116.544">
  <defs>
    <style>
      .cls-1 {
        fill: #6e892b;
      }

      .cls-1, .cls-2, .cls-3, .cls-4, .cls-5, .cls-6, .cls-7, .cls-8 {
        fill-rule: evenodd;
      }

      .cls-2, .cls-3 {
        fill: none;
      }

      .cls-3 {
        stroke: #1a1818;
        stroke-miterlimit: 3.864;
        stroke-width: 0.675px;
      }

      .cls-4 {
        fill: #ee4f1a;
      }

      .cls-5 {
        fill: #6a191e;
      }

      .cls-6 {
        fill: url(#linear-gradient);
      }

      .cls-7 {
        fill: url(#linear-gradient-2);
      }

      .cls-8 {
        fill: url(#linear-gradient-3);
      }
    </style>
    <linearGradient id="linear-gradient" x1="135.829" y1="44.528" x2="198.373" y2="44.528" gradientUnits="userSpaceOnUse">
      <stop offset="0" stop-color="#fff"/>
      <stop offset="0.05" stop-color="#f5f7f1"/>
      <stop offset="0.309" stop-color="#c6d0ab"/>
      <stop offset="0.544" stop-color="#a0b274"/>
      <stop offset="0.744" stop-color="#859c4c"/>
      <stop offset="0.903" stop-color="#748e34"/>
      <stop offset="1" stop-color="#6e892b"/>
    </linearGradient>
    <linearGradient id="linear-gradient-2" x1="157.644" y1="24.134" x2="198.613" y2="24.134" gradientUnits="userSpaceOnUse">
      <stop offset="0" stop-color="#fff"/>
      <stop offset="0.102" stop-color="#fde7e0"/>
      <stop offset="0.348" stop-color="#f8b29a"/>
      <stop offset="0.569" stop-color="#f38763"/>
      <stop offset="0.758" stop-color="#f0693b"/>
      <stop offset="0.908" stop-color="#ef5623"/>
      <stop offset="1" stop-color="#ee4f1a"/>
    </linearGradient>
    <linearGradient id="linear-gradient-3" x1="175.289" y1="10.027" x2="199.423" y2="10.027" gradientUnits="userSpaceOnUse">
      <stop offset="0" stop-color="#fff"/>
      <stop offset="0.105" stop-color="#eadfe0"/>
      <stop offset="0.35" stop-color="#bd999c"/>
      <stop offset="0.57" stop-color="#996266"/>
      <stop offset="0.759" stop-color="#803a3f"/>
      <stop offset="0.908" stop-color="#702227"/>
      <stop offset="1" stop-color="#6a191e"/>
    </linearGradient>
  </defs>
  <title>399e4e46-7651-4a80-8e3a-3992f4b55d03</title>
  <path class="cls-1" d="M198.815,21.232c-5.19,29.457-65.607,6.573-62.423,49.239C142.245,45.239,198.815,63.575,198.815,21.232Z" transform="translate(-0.993 -0.527)"/>
  <g>
    <path class="cls-2" d="M126.331,81.831" transform="translate(-0.993 -0.527)"/>
    <path class="cls-3" d="M126.331,81.831" transform="translate(-0.993 -0.527)"/>
  </g>
  <path class="cls-4" d="M199.055,9.332c-3.4,19.3-42.975,4.306-40.89,32.253C162,25.057,199.055,37.068,199.055,9.332Z" transform="translate(-0.993 -0.527)"/>
  <path class="cls-5" d="M199.865,1.851c-2,11.367-25.317,2.536-24.088,19C178.035,11.115,199.865,18.19,199.865,1.851Z" transform="translate(-0.993 -0.527)"/>
  <path class="cls-6" d="M198.373,19.908c-5.19,29.458-65.607,6.573-62.423,49.239C141.8,43.915,198.373,62.251,198.373,19.908Z" transform="translate(-0.993 -0.527)"/>
  <path class="cls-7" d="M198.613,8.008c-3.4,19.3-42.975,4.306-40.89,32.254C161.558,23.733,198.613,35.744,198.613,8.008Z" transform="translate(-0.993 -0.527)"/>
  <path class="cls-8" d="M199.423.527c-2,11.367-25.317,2.537-24.088,19C177.594,9.791,199.423,16.866,199.423.527Z" transform="translate(-0.993 -0.527)"/>
  <path class="cls-4" d="M37.567,51.389,38.673,66.8H37.567a22.431,22.431,0,0,0-4.2-8.7,12.3,12.3,0,0,0-9.587-4.2q-8.037,0-12.241,7.373A30.158,30.158,0,0,0,8.072,76.091a34.269,34.269,0,0,0,2.285,12.757,19.081,19.081,0,0,0,6.121,8.48,13.277,13.277,0,0,0,7.742,2.654,14.844,14.844,0,0,0,4.424-.664,16.257,16.257,0,0,0,4.129-2.065V83.171a13.863,13.863,0,0,0-.515-4.793,3.4,3.4,0,0,0-1.4-1.77,7.149,7.149,0,0,0-3.466-.59V74.69H43.541v1.328H42.8a3.462,3.462,0,0,0-3.391,1.917,17.108,17.108,0,0,0-.516,5.235V98.139l-.074,13.574c0,7.415-10,5.486-13.33,2.5,3.365,1.51,7.211,1.052,7.211-1.452l.073-10.571-2.138.073q-2.287.149-6.489.148-12.167,0-18.435-9.069A26.817,26.817,0,0,1,.993,77.639,29.679,29.679,0,0,1,3.648,65.326a25.929,25.929,0,0,1,8.627-10.84,18.992,18.992,0,0,1,10.914-3.1,17.743,17.743,0,0,1,4.129.442,29.912,29.912,0,0,1,5.308,1.843,6.953,6.953,0,0,0,2.286.811,1.1,1.1,0,0,0,.959-.59,5.762,5.762,0,0,0,.59-2.507Z" transform="translate(-0.993 -0.527)"/>
  <path class="cls-4" d="M69.048,93.254a1.749,1.749,0,0,1-1,.284,1.413,1.413,0,0,1-.925-.356,2.112,2.112,0,0,1-.57-1.351q-.142-1.066-.142-5.619V75.4q0-4.552-.64-6.045a6.568,6.568,0,0,0-3.058-3.414,14.748,14.748,0,0,0-6.9-1.423q-5.546,0-8.605,2.49t-3.058,5.476a3.733,3.733,0,0,0,.781,2.49,2.785,2.785,0,0,0,2.134.925,2.754,2.754,0,0,0,2.135-.853,3.528,3.528,0,0,0,.853-2.49l-.072-1.991a3.508,3.508,0,0,1,1.281-2.7,4.875,4.875,0,0,1,3.485-1.209,5.432,5.432,0,0,1,4.411,1.779,6.73,6.73,0,0,1,1.493,4.481v1.209a61.779,61.779,0,0,0-10.74,4.338,16.64,16.64,0,0,0-5.264,4.553,10.577,10.577,0,0,0-1.707,6.757,8.285,8.285,0,0,0,2.134,5.9,7.09,7.09,0,0,0,5.406,2.275,9.9,9.9,0,0,0,4.055-.852,68.083,68.083,0,0,0,6.117-4.41,6.7,6.7,0,0,0,1.067,4.053,3.407,3.407,0,0,0,2.7,1.137q3.557,0,7.4-5.191V90.765A20.35,20.35,0,0,1,69.048,93.254Zm-8.392-2.846q-4.338,3.486-6.971,3.486a4.517,4.517,0,0,1-3.413-1.637A8.918,8.918,0,0,1,48.208,88.2a8.643,8.643,0,0,1,1-4.2q1.066-2.2,4.694-4.765a52.572,52.572,0,0,1,6.757-2.987Z" transform="translate(-0.993 -0.527)"/>
  <path class="cls-4" d="M108.174,88.347a12.752,12.752,0,0,1-3.841,5.9,8.75,8.75,0,0,1-5.406,1.707q-6.614.64-10.953-6.757A41.473,41.473,0,0,1,86.2,83.013l22.4-6.9q0-5.9-3.343-8.748a12.645,12.645,0,0,0-8.606-2.846,13.713,13.713,0,0,0-10.526,4.553q-4.2,4.552-4.2,12.731a20.641,20.641,0,0,0,2.418,11.949q4.695,7.252,11.878,7.893a11.3,11.3,0,0,0,8.819-3.911,17.027,17.027,0,0,0,4.268-8.677ZM89.54,69.215a7.15,7.15,0,0,1,5.192-2.277,6.323,6.323,0,0,1,3.556,1.138,7.02,7.02,0,0,1,2.56,3.058,13.916,13.916,0,0,1,.782,4.267l-15.292,4.41Q87.263,71.419,89.54,69.215Z" transform="translate(-0.993 -0.527)"/>
  <path class="cls-4" d="M79.684,44.94v60.12a11.962,11.962,0,0,0,.428,3.983,6.017,6.017,0,0,0,1,1.635,8.63,8.63,0,0,0,2.7,1.565l.924.427q-10.383.64-10.81-7.61V58.24a41.763,41.763,0,0,0-.284-6.543,2.614,2.614,0,0,0-.783-1.707,1.732,1.732,0,0,0-1.281-.5,6.618,6.618,0,0,0-2.345.57l-.57-1.21L78.12,44.94Z" transform="translate(-0.993 -0.527)"/>
  <path class="cls-4" d="M167.125,93.254a1.75,1.75,0,0,1-1,.284,1.413,1.413,0,0,1-.925-.356,2.111,2.111,0,0,1-.57-1.351q-.142-1.066-.142-5.619V75.4q0-4.552-.64-6.045a6.568,6.568,0,0,0-3.058-3.414,14.749,14.749,0,0,0-6.9-1.423q-5.546,0-8.605,2.49t-3.058,5.476a3.733,3.733,0,0,0,.781,2.49,2.785,2.785,0,0,0,2.134.925,2.754,2.754,0,0,0,2.135-.853,3.528,3.528,0,0,0,.853-2.49l-.071-1.991a3.508,3.508,0,0,1,1.28-2.7,4.875,4.875,0,0,1,3.485-1.209,5.432,5.432,0,0,1,4.411,1.779,6.73,6.73,0,0,1,1.493,4.481v1.209a61.765,61.765,0,0,0-10.74,4.338,16.636,16.636,0,0,0-5.264,4.553,10.576,10.576,0,0,0-1.707,6.757,8.286,8.286,0,0,0,2.134,5.9,7.09,7.09,0,0,0,5.406,2.275,9.9,9.9,0,0,0,4.055-.852,68.144,68.144,0,0,0,6.117-4.41,6.7,6.7,0,0,0,1.067,4.053,3.408,3.408,0,0,0,2.7,1.137q3.557,0,7.4-5.191V90.765A20.356,20.356,0,0,1,167.125,93.254Zm-8.392-2.846q-4.338,3.486-6.971,3.486a4.517,4.517,0,0,1-3.413-1.637,8.916,8.916,0,0,1-2.063-4.054,8.643,8.643,0,0,1,1-4.2q1.066-2.2,4.694-4.765a52.558,52.558,0,0,1,6.757-2.987Z" transform="translate(-0.993 -0.527)"/>
  <path class="cls-4" d="M119.735,64.876v7.113q3.984-7.114,8.18-7.113a4.378,4.378,0,0,1,3.13,1.139,3.5,3.5,0,0,1,1.28,2.7,3.093,3.093,0,0,1-.925,2.276,2.781,2.781,0,0,1-2.133.925,4.774,4.774,0,0,1-2.774-1.209,4.419,4.419,0,0,0-2.2-1.209,2,2,0,0,0-1.352.711,16.247,16.247,0,0,0-3.2,4.695V97.38a9.649,9.649,0,0,0,.64,3.982,3.206,3.206,0,0,0,1.565,1.493,7.225,7.225,0,0,0,3.343.64v1.281H109v-1.281a7.315,7.315,0,0,0,3.628-.711,3.089,3.089,0,0,0,1.209-1.779,22.011,22.011,0,0,0,.142-3.413V78.105a54.292,54.292,0,0,0-.214-6.615,2.519,2.519,0,0,0-.853-1.565,2.185,2.185,0,0,0-1.493-.5A6.331,6.331,0,0,0,109,70l-.355-1.281,9.6-3.841Z" transform="translate(-0.993 -0.527)"/>
  <path class="cls-4" d="M138.8,72.238V97.772a11.965,11.965,0,0,0,.426,3.983,3.064,3.064,0,0,0,1.281,1.493,6.8,6.8,0,0,0,3.129.5v1.278H128.2v-1.278a7.5,7.5,0,0,0,3.13-.428,3.2,3.2,0,0,0,1.209-1.493,10.992,10.992,0,0,0,.5-4.053V85.538a46.892,46.892,0,0,0-.284-6.685,3,3,0,0,0-.782-1.565,2.12,2.12,0,0,0-1.422-.427,6.954,6.954,0,0,0-2.348.5l-.5-1.209,9.6-3.913Z" transform="translate(-0.993 -0.527)"/>
  <path class="cls-4" d="M188.643,63.026v10.6h-1.137a13.129,13.129,0,0,0-3.343-5.192,7.587,7.587,0,0,0-5.263-1.849,5.606,5.606,0,0,0-3.911,1.351,3.713,3.713,0,0,0-1.494,2.844,5.119,5.119,0,0,0,1.067,3.272,80.8,80.8,0,0,0,6.544,6.615l6.472,5.619a10.743,10.743,0,0,1,4.125,8.89,8.5,8.5,0,0,1-3.271,6.97,11.214,11.214,0,0,1-7.326,2.7,24.937,24.937,0,0,1-6.686-1.067,6.672,6.672,0,0,0-1.92-.356q-.783,0-1.138,2.135h-1.137V94.534h1.137a10.261,10.261,0,0,0,3.628,6.187,10.119,10.119,0,0,0,6.187,2.063,5.34,5.34,0,0,0,3.841-1.423,4.456,4.456,0,0,0,1.565-3.414,5.306,5.306,0,0,0-1.707-3.982l-5.264-5.05a99.334,99.334,0,0,1-8.677-10.171,7.629,7.629,0,0,1-1.565-4.978,8.759,8.759,0,0,1,2.7-6.543,9.569,9.569,0,0,1,6.969-2.632,16.9,16.9,0,0,1,4.552.783,11.334,11.334,0,0,0,2.347.5,1.417,1.417,0,0,0,.854-.213,6.089,6.089,0,0,0,.711-2.632Z" transform="translate(-0.993 -0.527)"/>
  <path class="cls-5" d="M215.609,83.942,203.443,62.927V95.076q0,4.5.737,5.6a3.965,3.965,0,0,0,3.466,1.548h1.328v1.253H191.939v-1.327h1.4a3.887,3.887,0,0,0,3.614-1.844q.663-1.18.663-5.309V63.148a12.315,12.315,0,0,0-.663-4.719,3.258,3.258,0,0,0-1.475-1.7,6.549,6.549,0,0,0-3.54-.738V54.668h11.282l13.568,22.048,15.042-22.048h11.282V56h-1.4a3.785,3.785,0,0,0-3.613,1.844q-.665,1.18-.664,5.308V106.8c0,4.692,5.678,6.008,5.678,6.008-.061,0-11.282,1.1-11.282-6.008V62.411L217.969,83.942Z" transform="translate(-0.993 -0.527)"/>
  <path class="cls-5" d="M285.664,50.154v59.475a11.624,11.624,0,0,0,.416,3.872,5.847,5.847,0,0,0,.967,1.59,8.4,8.4,0,0,0,2.628,1.521l.9.415q-10.092.622-10.508-7.4V63.082a40.586,40.586,0,0,0-.276-6.36,2.541,2.541,0,0,0-.761-1.659,1.684,1.684,0,0,0-1.245-.484,6.435,6.435,0,0,0-2.28.554l-.554-1.176,9.195-3.8Z" transform="translate(-0.993 -0.527)"/>
  <path class="cls-5" d="M274.254,54.016v55.613a11.624,11.624,0,0,0,.416,3.872,5.851,5.851,0,0,0,.967,1.59,8.4,8.4,0,0,0,2.628,1.521l.9.415q-10.093.622-10.508-7.4V63.082c0-3.457-.092-1.714-.276-2.5a2.541,2.541,0,0,0-.76-1.66,1.685,1.685,0,0,0-1.245-.484,6.436,6.436,0,0,0-2.28.554l-.554-1.176,9.195-3.8Z" transform="translate(-0.993 -0.527)"/>
  <path class="cls-5" d="M264.475,97.827a1.7,1.7,0,0,1-.967.276,1.374,1.374,0,0,1-.9-.346,2.054,2.054,0,0,1-.554-1.313q-.138-1.036-.138-5.461V80.474q0-4.424-.622-5.876a6.384,6.384,0,0,0-2.973-3.319,14.337,14.337,0,0,0-6.706-1.383q-5.391,0-8.365,2.42t-2.973,5.323a3.627,3.627,0,0,0,.76,2.42,2.707,2.707,0,0,0,2.074.9,2.676,2.676,0,0,0,2.075-.829,3.429,3.429,0,0,0,.829-2.42l-.07-1.936a3.41,3.41,0,0,1,1.245-2.628,4.738,4.738,0,0,1,3.387-1.175,5.281,5.281,0,0,1,4.287,1.729,6.542,6.542,0,0,1,1.451,4.356V79.23a60.048,60.048,0,0,0-10.439,4.217,16.174,16.174,0,0,0-5.116,4.425A10.281,10.281,0,0,0,239.1,94.44a8.054,8.054,0,0,0,2.074,5.738,6.891,6.891,0,0,0,5.255,2.211,9.62,9.62,0,0,0,3.941-.828,66.117,66.117,0,0,0,5.945-4.286,6.517,6.517,0,0,0,1.037,3.94,3.313,3.313,0,0,0,2.627,1.106q3.458,0,7.19-5.046V95.407A19.785,19.785,0,0,1,264.475,97.827Zm-8.158-2.766q-4.217,3.388-6.776,3.388a4.391,4.391,0,0,1-3.318-1.591,8.666,8.666,0,0,1-2.005-3.94,8.4,8.4,0,0,1,.968-4.08,13.687,13.687,0,0,1,4.563-4.632,51.065,51.065,0,0,1,6.568-2.9Z" transform="translate(-0.993 -0.527)"/>
</svg>